# xmcd
#
# Track frame offsets: 
#        150
#        16838
#        40708
#        54693
#        74693
#        132103
#        153918
#        178688
#        192253
#        212163
#        242108
#
# Disc length: 3584 seconds
#
# Revision: 0
# Processed by: cddbd v1.5.2PL0 Copyright (c) Steve Scherf et al.
# Submitted via: ExactAudioCopyFreeDBPlugin 1.0
#
DISCID=980dfe0b
DTITLE=Phoenix Chorale - Northern Lights
DYEAR=2012
DGENRE=Classical
TTITLE0=The Ground (Pleni sunt caeli)
TTITLE1=Serenity (O magnum mysterium)
TTITLE2=Ubi Caritas
TTITLE3=Northern Lights (Pulchra es, amica mea)
TTITLE4=Dark Night of the Soul
TTITLE5=The Spheres (Kyrie eleison)
TTITLE6=Tota Pulchra es
TTITLE7=Prelude (Exsultate, jubilate)
TTITLE8=Phoenix (Agnus Dei)
TTITLE9=Unicornis captivatur
TTITLE10=Evening Prayer
EXTD=
EXTT0=
EXTT1=
EXTT2=
EXTT3=
EXTT4=
EXTT5=
EXTT6=
EXTT7=
EXTT8=
EXTT9=
EXTT10=
PLAYORDER=
